/* XPM */
static const char * const drag_pixmap_xpm[] = {
"48 18 226 2",
"  	c None",
". 	c #FFFFFF",
"+ 	c #FEFFFE",
"@ 	c #F3FBF3",
"# 	c #B9B9B9",
"$ 	c #F4F4F4",
"% 	c #BCBCBC",
"& 	c #F0F0F0",
"* 	c #ECFAEC",
"= 	c #99E494",
"- 	c #6DD966",
"; 	c #41CD38",
"> 	c #17C20C",
", 	c #15C10B",
"' 	c #B4EAB0",
") 	c #B2EAAE",
"! 	c #C2EEC0",
"~ 	c #FDFDFD",
"{ 	c #797979",
"] 	c #DEDEDE",
"^ 	c #858585",
"/ 	c #CFCFCF",
"( 	c #A3E69F",
"_ 	c #1FC414",
": 	c #0CBF00",
"< 	c #37CB2E",
"[ 	c #43CE3A",
"} 	c #7BDC74",
"| 	c #F7F7F7",
"1 	c #B3B3B3",
"2 	c #E5E5E5",
"3 	c #BFBFBF",
"4 	c #ECF9EB",
"5 	c #4BCF43",
"6 	c #0CC400",
"7 	c #0DD200",
"8 	c #0ED500",
"9 	c #0DD100",
"0 	c #0CC200",
"a 	c #DEF5DC",
"b 	c #DFF6DE",
"c 	c #53D24A",
"d 	c #B0B0B0",
"e 	c #F6F6F6",
"f 	c #AAAAAA",
"g 	c #D2F2D1",
"h 	c #25CF1B",
"i 	c #10ED01",
"j 	c #10F701",
"k 	c #0FE801",
"l 	c #1EE610",
"m 	c #11EB03",
"n 	c #11F901",
"o 	c #0FE701",
"p 	c #89E084",
"q 	c #81DD7B",
"r 	c #29C720",
"s 	c #C4C4C4",
"t 	c #505050",
"u 	c #080808",
"v 	c #353535",
"w 	c #7F7F7F",
"x 	c #F8F8F8",
"y 	c #FCFEFC",
"z 	c #A2E79E",
"A 	c #13DA07",
"B 	c #12D405",
"C 	c #9FE69A",
"D 	c #F5FCF5",
"E 	c #89E184",
"F 	c #13DC06",
"G 	c #10F801",
"H 	c #0ED600",
"I 	c #14C109",
"J 	c #86DE81",
"K 	c #13C108",
"L 	c #099201",
"M 	c #C7CCC7",
"N 	c #EDEDED",
"O 	c #515151",
"P 	c #B4B6B4",
"Q 	c #838383",
"R 	c #151515",
"S 	c #878787",
"T 	c #F5F5F5",
"U 	c #959995",
"V 	c #FCFCFC",
"W 	c #E4F8E4",
"X 	c #49D941",
"Y 	c #11D604",
"Z 	c #EFFBEE",
"` 	c #59D651",
" .	c #0FE901",
"..	c #10EF01",
"+.	c #10C504",
"@.	c #C5EFC2",
"#.	c #D7F5D6",
"$.	c #1FCC13",
"%.	c #10F001",
"&.	c #0CC300",
"*.	c #098C00",
"=.	c #879F87",
"-.	c #B1B1B1",
";.	c #AFAFAF",
">.	c #6F6F6F",
",.	c #2A2A2A",
"'.	c #B3EAAF",
").	c #52D14B",
"!.	c #9A9A9A",
"~.	c #202020",
"{.	c #B4B4B4",
"].	c #A9AEA9",
"^.	c #10770A",
"/.	c #99E495",
"(.	c #18DF0A",
"_.	c #12D306",
":.	c #9EE599",
"<.	c #E6F9E6",
"[.	c #28C81E",
"}.	c #10EC01",
"|.	c #0FE201",
"1.	c #0CC000",
"2.	c #85DE7F",
"3.	c #D6F4D4",
"4.	c #0EDE00",
"5.	c #10F601",
"6.	c #0ED200",
"7.	c #A6E7A3",
"8.	c #3C3C3C",
"9.	c #6A726A",
"0.	c #20C415",
"a.	c #0DC002",
"b.	c #E8F8E7",
"c.	c #E6E6E6",
"d.	c #000000",
"e.	c #D2D2D2",
"f.	c #A1E69C",
"g.	c #0FEC01",
"h.	c #0FEB01",
"i.	c #4ED446",
"j.	c #E1F6DF",
"k.	c #FDFEFD",
"l.	c #4AD042",
"m.	c #32C928",
"n.	c #FAFEFA",
"o.	c #1DC412",
"p.	c #0DCB00",
"q.	c #10F201",
"r.	c #0ED300",
"s.	c #74DC6E",
"t.	c #878887",
"u.	c #092109",
"v.	c #9BE497",
"w.	c #212121",
"x.	c #FEFEFE",
"y.	c #3ACB31",
"z.	c #0EDD00",
"A.	c #88DF83",
"B.	c #0ED800",
"C.	c #10F101",
"D.	c #0CC100",
"E.	c #B7ECB5",
"F.	c #D2F3D0",
"G.	c #26C61C",
"H.	c #0DCE00",
"I.	c #1EF70F",
"J.	c #32ED26",
"K.	c #26B81D",
"L.	c #000500",
"M.	c #054700",
"N.	c #0A9F00",
"O.	c #11650C",
"P.	c #131313",
"Q.	c #6A6A6A",
"R.	c #CAF0C7",
"S.	c #0DCF00",
"T.	c #15C20A",
"U.	c #0FE101",
"V.	c #0CC500",
"W.	c #4DD045",
"X.	c #3ECD36",
"Y.	c #0DC800",
"Z.	c #0BAB01",
"`.	c #19A70F",
" +	c #26B91C",
".+	c #145610",
"++	c #000600",
"@+	c #033200",
"#+	c #2B8226",
"$+	c #D1D4D1",
"%+	c #64D65C",
"&+	c #0DCA00",
"*+	c #0EBF03",
"=+	c #EAF8E9",
"-+	c #21C417",
";+	c #D5F3D3",
">+	c #F7FCF7",
",+	c #79DC72",
"'+	c #45CE3C",
")+	c #51B04A",
"!+	c #669263",
"~+	c #BFCEBE",
"{+	c #498E44",
"]+	c #0FE401",
"^+	c #5EDA57",
"/+	c #69D361",
"(+	c #098C01",
"_+	c #0CB501",
":+	c #1FCD14",
"<+	c #3BCC32",
"[+	c #36CA2D",
"}+	c #DAF5D9",
"|+	c #C9C9C9",
"1+	c #ACADAC",
"2+	c #7BDD76",
"3+	c #1DE40F",
"4+	c #14B90A",
"5+	c #50974C",
"6+	c #F4FBF4",
"7+	c #CBF0C8",
"8+	c #56D34E",
"9+	c #85DF80",
"0+	c #EAF9EA",
"a+	c #DADADA",
"b+	c #C1C1C1",
"c+	c #FBFBFB",
". . . . . . . . . . . . . . . . . . . . . . . . . . . . . . . . . . . . . . . . . . . . . . . . ",
". . . . . . . . . . . . . . . . + @ . . . . . . . . . # $ . . . . % & . . . . . . . . . . . . . ",
". . . . . . . . . . . . * = - ; > , ' . . . ) ! . . ~ { ] . . . . ^ / . . . . . . . . . . . . . ",
". . . . . . . . . . . ( _ : : : : : < . . . [ } . . . | 1 . . . 2 3 . . . . . . . . . . . . . . ",
". . . . . . . . . 4 5 6 7 8 9 0 : : : a . b : c . . . . d ~ e . f . . . . . . . . . . . . . . . ",
". . . . . . . . g h i j k l m n o 6 : p . q : r . . . . s t u v w x . . . . . . . . . y . . . . ",
". . . . . . . z A j B C 4 . D E F G H I J K : L M . . N u O P Q R S . . T U V . . W X Y ; . . . ",
". . . . . Z `  ...+.@.. . . . . #.$.%. .&.: : *.=.-.;.>.,.'.).. !.~.1 {.].^.[ ) /.(.j _.:.. . . ",
". . . . <.[.}.|.1.2.. . . . . . . 3._ 4.5.6.: : 7.. . 8.9.0.a.b.c.d.e.. f.: : &.g.h.i.j.. . . . ",
". . . k.l.|. .: m.n.. . . . . . . . g o.p.i q.r.s.. . t.u.: : v.!.w.x.. y.: p.5.z.: 3.. . . . . ",
". . . A.B.C.D.: E.. . . . . . . . . . F.G.: H.h.n I.J.K.L.M.N.O.P.Q.. R.: S.j S.: : a . . . . . ",
". . n.T.U.V.: W.. . . . . . . . . . . . <.X.: : : Y.Z.`. +.+++@+#+$+;.%+6.j &+: : *+D . . . . . ",
". . . =+J -+*+;+. . . . . . . . . . . . . >+,+'+)+!+~+. . . {+]+ .^+/+(+_+:+<+: : [+. . . . . . ",
". . . . . k.}+. . . . . . . . . . . . . . . . . |+{.. . . . 1+2+3+n 5.4+5+6+. 7+8+9+. . . . . . ",
". . . . . . . . . . . . . . . . . . . . . . . . . . . . . . ;.. . ;+0+. . . . . . . . . . . . . ",
". . . . . . . . . . . . . . . . . . . . . . . . . . . . . ~ Q a+. . . . . . . . . . . . . . . . ",
". . . . . . . . . . . . . . . . . . . . . . . . . . . . . . b+c+. . . . . . . . . . . . . . . . ",
". . . . . . . . . . . . . . . . . . . . . . . . . . . . . . . . . . . . . . . . . . . . . . . . "};
